<svg xmlns="http://www.w3.org/2000/svg">
    <!-- svg icons are from https://heroicons.com/ -->

    <symbol id="icon-add">
        <svg xmlns="http://www.w3.org/2000/svg" fill="none" viewBox="0 0 24 24" stroke-width="1.5" stroke="currentColor" class="w-6 h-6">
            <path stroke-linecap="round" stroke-linejoin="round" d="M12 4.5v15m7.5-7.5h-15" />
        </svg>
    </symbol>

    <symbol id="icon-trash">
        <svg xmlns="http://www.w3.org/2000/svg" fill="none" viewBox="0 0 24 24" stroke-width="1.5" stroke="currentColor" class="w-6 h-6">
            <path stroke-linecap="round" stroke-linejoin="round" d="M14.74 9l-.346 9m-4.788 0L9.26 9m9.968-3.21c.342.052.682.107 1.022.166m-1.022-.165L18.16 19.673a2.25 2.25 0 01-2.244 2.077H8.084a2.25 2.25 0 01-2.244-2.077L4.772 5.79m14.456 0a48.108 48.108 0 00-3.478-.397m-12 .562c.34-.059.68-.114 1.022-.165m0 0a48.11 48.11 0 013.478-.397m7.5 0v-.916c0-1.18-.91-2.164-2.09-2.201a51.964 51.964 0 00-3.32 0c-1.18.037-2.09 1.022-2.09 2.201v.916m7.5 0a48.667 48.667 0 00-7.5 0" />
        </svg>
    </symbol>

    <symbol id="icon-smile">
        <svg xmlns="http://www.w3.org/2000/svg" fill="none" viewBox="0 0 24 24" stroke-width="1.5" stroke="currentColor" class="w-6 h-6">
            <path stroke-linecap="round" stroke-linejoin="round" d="M15.182 15.182a4.5 4.5 0 01-6.364 0M21 12a9 9 0 11-18 0 9 9 0 0118 0zM9.75 9.75c0 .414-.168.75-.375.75S9 10.164 9 9.75 9.168 9 9.375 9s.375.336.375.75zm-.375 0h.008v.015h-.008V9.75zm5.625 0c0 .414-.168.75-.375.75s-.375-.336-.375-.75.168-.75.375-.75.375.336.375.75zm-.375 0h.008v.015h-.008V9.75z" />
        </svg>
    </symbol>

    <symbol id="icon-edit">
        <svg xmlns="http://www.w3.org/2000/svg" fill="none" viewBox="0 0 24 24" stroke-width="1.5" stroke="currentColor" class="w-6 h-6">
            <path stroke-linecap="round" stroke-linejoin="round" d="M16.862 4.487l1.687-1.688a1.875 1.875 0 112.652 2.652L10.582 16.07a4.5 4.5 0 01-1.897 1.13L6 18l.8-2.685a4.5 4.5 0 011.13-1.897l8.932-8.931zm0 0L19.5 7.125M18 14v4.75A2.25 2.25 0 0115.75 21H5.25A2.25 2.25 0 013 18.75V8.25A2.25 2.25 0 015.25 6H10" />
        </svg>
    </symbol>

    <symbol id="icon-trophy">
        <svg xmlns="http://www.w3.org/2000/svg" fill="none" viewBox="0 0 24 24" stroke-width="1.5" stroke="currentColor" class="w-6 h-6">
            <path stroke-linecap="round" stroke-linejoin="round" d="M16.5 18.75h-9m9 0a3 3 0 013 3h-15a3 3 0 013-3m9 0v-3.375c0-.621-.503-1.125-1.125-1.125h-.871M7.5 18.75v-3.375c0-.621.504-1.125 1.125-1.125h.872m5.007 0H9.497m5.007 0a7.454 7.454 0 01-.982-3.172M9.497 14.25a7.454 7.454 0 00.981-3.172M5.25 4.236c-.982.143-1.954.317-2.916.52A6.003 6.003 0 007.73 9.728M5.25 4.236V4.5c0 2.108.966 3.99 2.48 5.228M5.25 4.236V2.721C7.456 2.41 9.71 2.25 12 2.25c2.291 0 4.545.16 6.75.47v1.516M7.73 9.728a6.726 6.726 0 002.748 1.35m8.272-6.842V4.5c0 2.108-.966 3.99-2.48 5.228m2.48-5.492a46.32 46.32 0 012.916.52 6.003 6.003 0 01-5.395 4.972m0 0a6.726 6.726 0 01-2.749 1.35m0 0a6.772 6.772 0 01-3.044 0" />
        </svg>
    </symbol>

    <symbol id="icon-arrow-left">
        <svg xmlns="http://www.w3.org/2000/svg" fill="none" viewBox="0 0 24 24" stroke-width="1.5" stroke="currentColor" class="w-6 h-6">
            <path stroke-linecap="round" stroke-linejoin="round" d="M10.5 19.5L3 12m0 0l7.5-7.5M3 12h18" />
        </svg>
    </symbol>

    <symbol id="icon-arrow-right">
        <svg xmlns="http://www.w3.org/2000/svg" fill="none" viewBox="0 0 24 24" stroke-width="1.5" stroke="currentColor" class="w-6 h-6">
            <path stroke-linecap="round" stroke-linejoin="round" d="M13.5 4.5L21 12m0 0l-7.5 7.5M21 12H3" />
        </svg>
    </symbol>

    <symbol id="icon-battery-empty">
        <svg xmlns="http://www.w3.org/2000/svg" fill="none" viewBox="0 0 24 24" stroke-width="1.5" stroke="currentColor" class="w-6 h-6">
            <path stroke-linecap="round" stroke-linejoin="round" d="M21 10.5h.375c.621 0 1.125.504 1.125 1.125v2.25c0 .621-.504 1.125-1.125 1.125H21M3.75 18h15A2.25 2.25 0 0021 15.75v-6a2.25 2.25 0 00-2.25-2.25h-15A2.25 2.25 0 001.5 9.75v6A2.25 2.25 0 003.75 18z" />
        </svg>
    </symbol>

    <symbol id="icon-battery-progress">
        <svg xmlns="http://www.w3.org/2000/svg" fill="none" viewBox="0 0 24 24" stroke-width="1.5" stroke="currentColor" class="w-6 h-6">
            <path stroke-linecap="round" stroke-linejoin="round" d="M21 10.5h.375c.621 0 1.125.504 1.125 1.125v2.25c0 .621-.504 1.125-1.125 1.125H21M4.5 10.5h6.75V15H4.5v-4.5zM3.75 18h15A2.25 2.25 0 0021 15.75v-6a2.25 2.25 0 00-2.25-2.25h-15A2.25 2.25 0 001.5 9.75v6A2.25 2.25 0 003.75 18z" />
        </svg>
    </symbol>

    <symbol id="icon-calendar">
        <svg xmlns="http://www.w3.org/2000/svg" fill="none" viewBox="0 0 24 24" stroke-width="1.5" stroke="currentColor" class="w-6 h-6">
            <path stroke-linecap="round" stroke-linejoin="round" d="M6.75 3v2.25M17.25 3v2.25M3 18.75V7.5a2.25 2.25 0 012.25-2.25h13.5A2.25 2.25 0 0121 7.5v11.25m-18 0A2.25 2.25 0 005.25 21h13.5A2.25 2.25 0 0021 18.75m-18 0v-7.5A2.25 2.25 0 015.25 9h13.5A2.25 2.25 0 0121 11.25v7.5m-9-6h.008v.008H12v-.008zM12 15h.008v.008H12V15zm0 2.25h.008v.008H12v-.008zM9.75 15h.008v.008H9.75V15zm0 2.25h.008v.008H9.75v-.008zM7.5 15h.008v.008H7.5V15zm0 2.25h.008v.008H7.5v-.008zm6.75-4.5h.008v.008h-.008v-.008zm0 2.25h.008v.008h-.008V15zm0 2.25h.008v.008h-.008v-.008zm2.25-4.5h.008v.008H16.5v-.008zm0 2.25h.008v.008H16.5V15z" />
        </svg>
    </symbol>

    <symbol id="icon-arrow-down">
        <svg xmlns="http://www.w3.org/2000/svg" fill="none" viewBox="0 0 24 24" stroke-width="1.5" stroke="currentColor" class="w-6 h-6">
            <path stroke-linecap="round" stroke-linejoin="round" d="M12 4.5v15m0 0l6.75-6.75M12 19.5l-6.75-6.75" />
        </svg>
    </symbol>

    <symbol id="icon-arrow-up">
        <svg xmlns="http://www.w3.org/2000/svg" fill="none" viewBox="0 0 24 24" stroke-width="1.5" stroke="currentColor" class="w-6 h-6">
            <path stroke-linecap="round" stroke-linejoin="round" d="M12 19.5v-15m0 0l-6.75 6.75M12 4.5l6.75 6.75" />
        </svg>
    </symbol>

</svg>